<svg width="57" height="57" viewBox="0 0 57 57" fill="none" xmlns="http://www.w3.org/2000/svg">
<path d="M46.55 49.875L31.5875 34.9125C30.4 35.8625 29.0344 36.6146 27.4906 37.1688C25.9469 37.7229 24.3042 38 22.5625 38C18.2479 38 14.5964 36.5057 11.6078 33.5172C8.61927 30.5286 7.125 26.8771 7.125 22.5625C7.125 18.2479 8.61927 14.5964 11.6078 11.6078C14.5964 8.61927 18.2479 7.125 22.5625 7.125C26.8771 7.125 30.5286 8.61927 33.5172 11.6078C36.5057 14.5964 38 18.2479 38 22.5625C38 24.3042 37.7229 25.9469 37.1688 27.4906C36.6146 29.0344 35.8625 30.4 34.9125 31.5875L49.875 46.55L46.55 49.875ZM22.5625 33.25C25.5312 33.25 28.0547 32.2109 30.1328 30.1328C32.2109 28.0547 33.25 25.5312 33.25 22.5625C33.25 19.5938 32.2109 17.0703 30.1328 14.9922C28.0547 12.9141 25.5312 11.875 22.5625 11.875C19.5938 11.875 17.0703 12.9141 14.9922 14.9922C12.9141 17.0703 11.875 19.5938 11.875 22.5625C11.875 25.5312 12.9141 28.0547 14.9922 30.1328C17.0703 32.2109 19.5938 33.25 22.5625 33.25Z" fill="#1D1B20"/>
</svg>
